PathFileType	4	(X/Y/Z)	Patient4_TMGait_0pt5_01_left_21.trc.trc
DataRate	CameraRate	NumFrames	NumMarkers	Units	OrigDataRate	OrigDataStartFrame	OrigNumFrames
74.468085106383	74.468085106383	4	33	mm	74.468085106383	124	       141
Frame#	Time	L.ASIS			Sacral			L.Shoulder			Chest			R.Shoulder			Neck			R.ASIS			R.Thigh.Superior			R.Thigh.Lateral			R.Thigh.Inferior			R.Patella			L.Thigh.Superior			L.Thigh.Lateral			L.Thigh.Inferior			L.Patella			L.Shank.Superior			L.Shank.Lateral			L.Shank.Inferior			R.Shank.Superior			R.Shank.Lateral			R.Shank.Inferior			R.Heel			R.Midfoot.Superior			R.Midfoot.Lateral			R.Toe			L.Heel			L.Midfoot.Lateral			L.Midfoot.Superior			L.Toe			L.Elbow			L.Wrist			R.Elbow			R.Wrist			
		X1	Y1	Z1	X2	Y2	Z2	X3	Y3	Z3	X4	Y4	Z4	X5	Y5	Z5	X6	Y6	Z6	X7	Y7	Z7	X8	Y8	Z8	X9	Y9	Z9	X10	Y10	Z10	X11	Y11	Z11	X12	Y12	Z12	X13	Y13	Z13	X14	Y14	Z14	X15	Y15	Z15	X16	Y16	Z16	X17	Y17	Z17	X18	Y18	Z18	X19	Y19	Z19	X20	Y20	Z20	X21	Y21	Z21	X22	Y22	Z22	X23	Y23	Z23	X24	Y24	Z24	X25	Y25	Z25	X26	Y26	Z26	X27	Y27	Z27	X28	Y28	Z28	X29	Y29	Z29	X30	Y30	Z30	X31	Y31	Z31	X32	Y32	Z32	X33	Y33	Z33	

124	29.731714285714	913.514254723771	955.688411028323	344.069080623367	707.907894340610	1003.091116199929	512.933695975548	866.660188944379	1437.001645882232	345.086644120740	983.965513748517	1356.634073002257	490.690896385388	918.387095718135	1420.253327609577	676.390680084054	883.825268870250	1489.332726144261	499.073795570060	939.836437974269	932.659267372274	618.254800341767	939.189591616179	722.559534039680	590.563884005450	835.206565716786	628.819535479755	650.873754112051	897.026314666244	562.903248825473	572.151509950550	877.058872598743	476.618647547110	575.480546777080	986.524648070320	768.486130424714	370.879487582057	931.110780388951	638.726436850658	299.316553586341	1033.488433051733	578.805308116188	358.868877931396	1057.606877043528	512.147441859957	357.817071064080	1041.248275263341	439.838841892458	349.792175183374	973.505665662830	310.276220487559	301.324589459843	1058.677646246091	211.351889271180	358.819016577291	836.853711739091	393.025134334582	581.245974856123	749.759139521309	301.100317556838	641.700931950016	776.575196884527	201.598120299075	577.378310275839	622.043172617051	46.165193442853	544.001534905002	794.845221194605	97.074205477633	581.132100024069	704.727273917650	37.253084998846	618.684629806612	913.113496026739	39.402865906103	610.054932221957	968.024713412398	39.747593114058	398.872000632700	1043.235125471446	39.242895209862	319.703778047507	1119.024225096907	110.149737083071	341.273049843569	1250.428408471759	70.910237745009	317.967584980795	729.549142072084	1113.036034048070	235.314001093292	710.484353646155	851.946404239701	236.391106524391	1046.351102861830	1101.033166345759	776.309109021943	1287.540588078064	1137.036553610461	707.531348677994	
125	29.745142857143	914.976894327798	954.471145799293	341.894675406469	708.745989270315	1001.515230881462	509.945369387907	865.793330794845	1435.665758415221	341.919736641072	983.239044029946	1356.088686373752	487.879870464224	916.955306948085	1419.671413256967	673.398851864460	882.562247308733	1488.377992540797	495.799305932527	940.707110969327	931.672443099168	616.192524202530	939.303196745476	721.265853451231	588.608299157893	834.618074174208	628.057280929921	648.965348833426	895.950405510531	561.569496133039	570.345859708894	875.178717052087	475.017198534437	573.606610826887	988.348104483400	767.003624768646	369.611742480071	932.305212507764	637.231982460308	298.732976058221	1034.468321386584	577.538714651543	358.811468015819	1057.490726367042	509.855017614784	358.272260815015	1040.565365127363	437.060158455891	350.181954417398	970.941997139367	308.336475779483	301.968306867095	1054.107578697840	208.270902693485	360.367745165452	833.984029519365	391.872749129084	579.724688704217	746.042599968852	301.106042314152	640.813573579839	771.329903716705	201.160454402684	576.701012692858	615.328285030814	46.600162807143	544.079993705230	788.181601431056	97.127358838141	581.122327383609	698.012028718495	37.396492822678	618.729884629628	906.436287295805	39.173582712638	610.122132396433	959.624388264690	38.976933409084	399.893242600382	1035.164881578537	37.759777936112	320.923872378454	1112.610446632959	106.446810369190	343.884748229272	1243.405891529903	64.160169765481	320.654312158952	730.127782926725	1110.992667650563	232.380056557668	713.540688505396	849.625208444987	233.415480885357	1044.333185867616	1100.005604495595	773.746373961901	1284.216727651379	1139.060578426192	702.672214177433	
126	29.758571428571	916.426398244842	953.487978540941	339.549788620237	709.713099113185	1000.107418808111	506.892279340359	865.111819267750	1434.497016859334	338.607959881534	982.660727901266	1355.686405488565	484.943649759633	915.687960808893	1419.305608667818	670.267246741691	881.502898106954	1487.614705951594	492.356628221512	941.589763645801	930.839722532326	613.960226608224	939.537490462326	720.114281307665	586.555602527145	834.180840916287	627.407151748540	646.921521057024	895.169024630216	560.347238644977	568.488675718995	873.669447487028	473.408821017202	571.752407260031	990.036778486801	765.724631427996	368.287354405924	933.459906588125	636.082915859951	297.947700820069	1035.349534225140	576.536789734337	358.663400801125	1057.183031434655	507.886395260291	358.645548790100	1039.810551304442	434.674793342810	350.354200639905	968.581377320456	306.750574626345	302.207135748948	1049.750123610333	205.679693409278	361.597317340838	831.343788114362	390.783328211275	578.187352459141	742.445392521089	301.289815397561	639.875289910223	766.212021829363	200.857705556291	576.066748697278	608.630609252325	47.294175461460	544.202856700382	781.626540726180	97.228159863575	581.167252146565	691.330403083908	37.637666595750	618.803048775754	899.792088758310	38.916732025714	610.183033686582	951.720976510936	38.414228767901	400.599995305972	1027.574524292351	36.691876850930	321.817433053734	1106.375523929081	103.454910001545	346.115097124951	1236.651867443312	58.646324721554	322.973028697045	731.406425602326	1108.858231807626	229.207926362551	717.651130637446	847.211845216773	230.075574174551	1041.789317157359	1098.922982929627	771.345626265752	1280.660795163912	1139.682471520009	698.164781186670	
127	29.772000000000	917.809258405065	952.811803404611	337.021684513231	710.750732144911	998.960349630175	503.794555335914	864.611813695256	1433.558325388025	335.173405756721	982.231916040036	1355.470955662222	481.887241843386	914.625994599194	1419.223475919439	667.002994057116	880.669195787599	1487.097440522638	488.766896225591	942.426200766277	930.227894698760	611.545511265062	939.848078488613	719.169542986632	584.396195813184	833.904276248958	626.905347032370	644.755892977709	894.728848330876	559.288398827856	566.600409647662	872.625806022456	471.813694929651	569.989591542276	991.583312295562	764.779552164119	366.884811982413	934.606004298637	635.355344463929	296.940718857893	1036.143790343000	575.859387988818	358.358396655853	1056.718868919375	506.318550566386	358.873068082958	1038.992910923018	432.751466043630	350.301552782569	966.430526248966	305.594899596853	302.000279296582	1045.585055502186	203.642302029013	362.475165466322	828.997702241436	389.790864156535	576.683180220579	739.001473605012	301.704930815596	638.901545349219	761.267913279976	200.736721742419	575.501117967964	601.972200368964	48.339446630017	544.374392256198	775.222225997025	97.382907837137	581.270696825118	684.696566715833	38.025552720464	618.907559305899	893.180071982090	38.641776688136	610.234768476948	944.350819820724	38.061750116762	401.018355505569	1020.472170175043	36.012158553624	322.387924642062	1100.299197546770	101.227104018867	347.864796214838	1230.162471663475	54.494307072572	324.801707827269	733.370630265167	1106.716983221965	225.817726072461	722.794502534346	844.808931424865	226.383224329232	1038.700561217174	1097.864570809490	769.094020291526	1276.881342109544	1138.893070582149	693.993647648179	
